<svg xmlns="http://www.w3.org/2000/svg" viewBox="0 0 120 120" width="120" height="120" role="img" aria-label="Cheers">

  <g transform="translate(44 72)">
    <g transform="rotate(0)">
      <animateTransform attributeName="transform" type="rotate" values="-16;6;-16"
        dur="2.4s" repeatCount="indefinite" calcMode="spline"
        keySplines="0.4 0 0.5 1; 0.4 0 0.5 1" keyTimes="0;0.5;1"/>
      <path d="M-13 -40h26l-4 18a9 9 0 0 1-18 0Z" fill="#f6d9a0" stroke="#c9922f" stroke-width="1.6"/>
      <path d="M0 -22v20" stroke="#c9922f" stroke-width="2.2"/>
      <path d="M-8 2h16" stroke="#c9922f" stroke-width="2.6" stroke-linecap="round"/>
    </g>
  </g>
  <g transform="translate(76 72)">
    <g>
      <animateTransform attributeName="transform" type="rotate" values="16;-6;16"
        dur="2.4s" repeatCount="indefinite" calcMode="spline"
        keySplines="0.4 0 0.5 1; 0.4 0 0.5 1" keyTimes="0;0.5;1"/>
      <path d="M-13 -40h26l-4 18a9 9 0 0 1-18 0Z" fill="#f6d9a0" stroke="#c9922f" stroke-width="1.6"/>
      <path d="M0 -22v20" stroke="#c9922f" stroke-width="2.2"/>
      <path d="M-8 2h16" stroke="#c9922f" stroke-width="2.6" stroke-linecap="round"/>
    </g>
  </g>
  <g transform="translate(60 26)">
    <path d="M12 0c.9 6.6 4.5 10.4 12 12-7.5 1.6-11.1 5.4-12 12-.9-6.6-4.5-10.4-12-12C7.5 10.4 11.1 6.6 12 0Z" transform="translate(-8 -8) scale(0.66)" fill="#fff0c2">
      <animate attributeName="opacity" values="0;0;1;0" keyTimes="0;0.42;0.52;0.7"
        dur="2.4s" repeatCount="indefinite"/>
      <animateTransform attributeName="transform" type="scale" values="0.5;1.25;0.5"
        dur="2.4s" repeatCount="indefinite" additive="sum"/>
    </path>
  </g>
  <circle cx="46" cy="20" r="2.4" fill="#f0d9a4">
    <animate attributeName="opacity" values="0;1;0" keyTimes="0;0.5;0.8" dur="2.4s" repeatCount="indefinite"/>
  </circle>
  <circle cx="76" cy="18" r="2" fill="#f0d9a4">
    <animate attributeName="opacity" values="0;1;0" keyTimes="0;0.55;0.85" dur="2.4s" repeatCount="indefinite"/>
  </circle>
</svg>
